<?xml version="1.0" encoding="UTF-8" standalone="no"?>
<!-- Created with Inkscape (http://www.inkscape.org/) -->

<svg
   xmlns:dc="http://purl.org/dc/elements/1.1/"
   xmlns:cc="http://creativecommons.org/ns#"
   xmlns:rdf="http://www.w3.org/1999/02/22-rdf-syntax-ns#"
   xmlns:svg="http://www.w3.org/2000/svg"
   xmlns="http://www.w3.org/2000/svg"
   xmlns:sodipodi="http://sodipodi.sourceforge.net/DTD/sodipodi-0.dtd"
   xmlns:inkscape="http://www.inkscape.org/namespaces/inkscape"
   width="214"
   height="214"
   id="svg4197"
   version="1.1"
   inkscape:version="0.91 r13725"
   sodipodi:docname="logo.svg">
  <defs
     id="defs4199" />
  <sodipodi:namedview
     id="base"
     pagecolor="#ffffff"
     bordercolor="#666666"
     borderopacity="1.0"
     inkscape:pageopacity="0.0"
     inkscape:pageshadow="2"
     inkscape:zoom="1.979899"
     inkscape:cx="218.13951"
     inkscape:cy="39.280666"
     inkscape:document-units="px"
     inkscape:current-layer="layer1"
     showgrid="false"
     fit-margin-top="0"
     fit-margin-left="0"
     fit-margin-right="0"
     fit-margin-bottom="0"
     inkscape:window-width="1920"
     inkscape:window-height="1053"
     inkscape:window-x="0"
     inkscape:window-y="1077"
     inkscape:window-maximized="1" />
  <metadata
     id="metadata4202">
    <rdf:RDF>
      <cc:Work
         rdf:about="">
        <dc:format>image/svg+xml</dc:format>
        <dc:type
           rdf:resource="http://purl.org/dc/dcmitype/StillImage" />
        <dc:title />
      </cc:Work>
    </rdf:RDF>
  </metadata>
  <g
     inkscape:label="Layer 1"
     inkscape:groupmode="layer"
     id="layer1"
     transform="translate(-561.5625,-442.49553)">
    <circle
       r="100"
       cy="549.50507"
       cx="668.57141"
       style="fill:#edf7fa;fill-opacity:1;stroke:#29b1cc;stroke-width:14;stroke-miterlimit:4;stroke-dasharray:none;stroke-opacity:1"
       id="path2985-9" />
    <g
       id="g4179">
      <path
         sodipodi:nodetypes="ccccc"
         style="fill:#29b1cc;fill-opacity:1;stroke:#edf7fa;stroke-width:0.8;stroke-opacity:1;stroke-miterlimit:4;stroke-dasharray:none"
         id="path2081"
         d="m 608.05279,555.88553 102.02829,-12.54 0.32119,3.562 -102.02828,12.541 z"
         inkscape:connector-curvature="0" />
      <path
         inkscape:connector-curvature="0"
         d="m 611.85555,555.42191 -4.49888,-5.23373 15.2094,-1.43604 4.79512,4.76432 -15.50564,1.90542 z"
         id="path2085"
         style="fill:#29b1cc;fill-opacity:1;stroke:#edf7fa;stroke-width:0.8;stroke-opacity:1;stroke-miterlimit:4;stroke-dasharray:none" />
      <path
         inkscape:connector-curvature="0"
         d="m 612.33917,558.96246 -3.0991,6.16665 15.10504,-2.2861 3.50009,-5.78284 -15.50603,1.90232 z"
         id="path2087"
         style="fill:#29b1cc;fill-opacity:1;stroke:#edf7fa;stroke-width:0.8;stroke-opacity:1;stroke-miterlimit:4;stroke-dasharray:none" />
      <path
         sodipodi:nodetypes="cccccccccccc"
         inkscape:connector-curvature="0"
         d="m 615.85492,564.14787 -2.45478,0.39284 58.12155,69.88501 2.72181,-0.21138 z m -4.86619,-2.5393 0.98741,-2.09053 -1.50264,-2.01472 43.34,-89.67684 -2.72167,0.21138 -43.34036,89.67684 z"
         id="path9264"
         style="fill:#29b1cc;fill-opacity:1;stroke:#edf7fa;stroke-width:0.8;stroke-miterlimit:4;stroke-dasharray:none;stroke-opacity:1" />
      <path
         inkscape:connector-curvature="0"
         d="m 713.56174,542.98562 -3.4877,-0.12995 0.4141,4.39022 3.3654,-0.77393 -0.2918,-3.48639 z"
         id="path2079"
         style="fill:#29b1cc;fill-opacity:1;stroke:#edf7fa;stroke-width:0.75015473;stroke-opacity:1" />
      <path
         inkscape:connector-curvature="0"
         d="m 731.83291,542.38716 c 0,0 -5.48456,-1.21767 -11.65218,-2.3446 -6.16762,-1.12693 -13.10093,-2.84459 -13.10093,-2.84459 3.65628,1.16529 4.38749,3.27515 6.47121,5.55516 l 0.45543,3.52414 c -2.19876,2.58211 -1.8119,5.02443 -5.17134,7.16911 0,0 6.04503,-3.26236 11.80451,-5.94445 5.75948,-2.68211 11.1933,-5.11477 11.1933,-5.11477 z"
         id="path2077"
         style="fill:#29b1cc;fill-opacity:1;stroke:#edf7fa;stroke-width:0.8;stroke-opacity:1;stroke-miterlimit:4;stroke-dasharray:none" />
      <path
         inkscape:connector-curvature="0"
         d="m 690.23313,547.47789 c 0.43417,2.88253 -1.58256,6.13191 -1.72135,9.18327 -0.22096,4.85807 2.43218,9.44579 1.05677,14.47612 -3.19549,11.68693 -11.5304,23.72398 -17.67541,33.52343 -5.09361,8.79396 -4.02093,14.59535 -1.18586,24.202 0.65111,2.20629 0.1002,4.77228 1.06121,7.44056 1.58869,-0.70998 3.36425,0.10186 4.95294,-0.60815 -3.57824,-11.80787 -6.02338,-17.15355 0.25074,-26.10663 11.15683,-15.92064 24.60136,-25.9129 26.3619,-40.0543 1.04636,-8.40487 -3.43492,-11.41001 -4.35105,-13.79739 -1.01014,-2.63238 -1.96209,-3.98863 -2.45623,-9.03168 -0.57123,-3.8427 -0.18174,-6.9576 0.25808,-8.87084 0.65414,-2.84553 4.64846,-4.99075 0.81552,-14.92586 -5.12937,-13.29544 -20.59188,-19.73835 -35.26886,-32.487 -8.25369,-7.1693 -7.17442,-12.94772 -6.55905,-25.2705 -1.71327,-0.30458 -3.23968,0.91272 -4.95294,0.60814 -0.24355,2.39473 0.93414,4.40755 0.8225,6.41761 -0.59269,10.67027 -0.36187,16.70079 6.95347,24.25489 8.62512,8.30279 19.46334,18.44291 25.41277,29.4209 2.33318,4.30523 1.15391,9.07828 2.43311,13.47314 0.81883,2.81322 3.52641,5.36326 3.79174,8.15229 z"
         id="path8367"
         style="fill:#29b1cc;fill-opacity:1;stroke:#edf7fa;stroke-width:0.8;stroke-opacity:1;stroke-miterlimit:4;stroke-dasharray:none" />
    </g>
  </g>
</svg>
